<svg id="Layer_1" data-name="Layer 1" xmlns="http://www.w3.org/2000/svg" viewBox="0 0 1106 5510.3"><defs><style>.cls-1,.cls-3{fill:#999;}.cls-1,.cls-10,.cls-11,.cls-12,.cls-13,.cls-15,.cls-22,.cls-24,.cls-4,.cls-5,.cls-56,.cls-7,.cls-8,.cls-9{opacity:0.2;}.cls-2,.cls-41{fill:none;}.cls-16,.cls-2,.cls-41{stroke:gray;stroke-miterlimit:10;}.cls-2{stroke-width:3px;stroke-dasharray:5 5;}.cls-14,.cls-23,.cls-3,.cls-6{opacity:0.15;}.cls-4,.cls-55{fill:#22b573;}.cls-5{fill:#0071bc;}.cls-6{fill:#ed1c24;}.cls-7{fill:blue;}.cls-8{fill:#00a99d;}.cls-9{fill:#f15a24;}.cls-10,.cls-25{fill:#0087bc;}.cls-11,.cls-37{fill:#335073;}.cls-12,.cls-14{fill:#736357;}.cls-13{fill:#006837;}.cls-15{fill:#29abe2;}.cls-16,.cls-26,.cls-38,.cls-54{fill:#fff;}.cls-16{stroke-width:2px;}.cls-17,.cls-20{font-size:18px;}.cls-17,.cls-24,.cls-33,.cls-40{fill:#148e77;}.cls-17,.cls-33,.cls-38,.cls-57{font-family:HelveticaNeue-Bold, Helvetica Neue;font-weight:700;}.cls-18{letter-spacing:0.02em;}.cls-19{letter-spacing:0em;}.cls-20,.cls-26{font-family:HelveticaNeue, Helvetica Neue;}.cls-21{letter-spacing:-0.02em;}.cls-22{fill:#9e005d;}.cls-23{fill:#662d91;}.cls-26,.cls-33,.cls-38,.cls-57{font-size:18px;}.cls-27{letter-spacing:-0.02em;}.cls-28{letter-spacing:0em;}.cls-29{fill:#d14b22;}.cls-30{letter-spacing:-0.02em;}.cls-31{letter-spacing:0em;}.cls-32{letter-spacing:-0.02em;}.cls-34{letter-spacing:0.02em;}.cls-35{fill:#d38d2f;}.cls-36{letter-spacing:-0.06em;}.cls-39{letter-spacing:0.04em;}.cls-41{stroke-width:12px;stroke-dasharray:5 3;}.cls-42{letter-spacing:0.02em;}.cls-43{letter-spacing:-0.11em;}.cls-44{letter-spacing:0em;}.cls-45{letter-spacing:-0.03em;}.cls-46{letter-spacing:-0.09em;}.cls-47{letter-spacing:-0.05em;}.cls-48{letter-spacing:0.02em;}.cls-49{letter-spacing:-0.03em;}.cls-50{letter-spacing:-0.03em;}.cls-51{letter-spacing:-0.09em;}.cls-52{letter-spacing:-0.07em;}.cls-53{letter-spacing:-0.06em;}.cls-56{fill:#f7931e;}.cls-57{fill:#4d4d4d;}</style></defs><path class="cls-1" d="M126.11,247c-48.24.31-123.56-139.44-67-194.54,31.3-30.5,100.89-33,132-4.61C247,98.85,175.56,246.69,126.11,247Z" transform="translate(-28 -28)"/><path class="cls-2" d="M993.5,1845.5c73,22,94,164,52.5,217.5" transform="translate(-28 -28)"/><path class="cls-2" d="M211.5,3809.5c-59,160-41,631,201,631" transform="translate(-28 -28)"/><path class="cls-2" d="M202.5,3804.5c-126,47-348,1325,233,1325" transform="translate(-28 -28)"/><path class="cls-2" d="M722.32,249.23C709.5,211.5,741,141.9,777.5,139.5" transform="translate(-28 -28)"/><rect class="cls-3" y="3752" width="1104" height="1656" rx="91.7"/><path class="cls-4" d="M458.8,4391.85c-228.69,60.64-361.59,473-253.75,586.53,45.53,47.94,110,17.4,345.38,13.8,371-5.67,486.2,66,523.62,10.84C1155.61,4882.8,764.92,4310.68,458.8,4391.85Z" transform="translate(-28 -28)"/><path class="cls-5" d="M556.31,3894.13c151.36-74.89,397.73-98.21,487.14,30.46,64,92.11,14.42,214.38,11.28,221.84-62,146.65-243.08,178.31-304.37,189-155.12,27.11-398.8-.4-437.22-123.42C277.85,4099.08,431.37,3956,556.31,3894.13Z" transform="translate(-28 -28)"/><path class="cls-2" d="M309.5,3434.5c89-42,306-5,375.5,72" transform="translate(-28 -28)"/><path class="cls-6" d="M615,3547.32c7.6-49.78,109.27-76.43,178-77.14,69.35-.72,170.47,24.3,179,72.49,9.11,51.48-88.17,125.27-184,123.62C699.08,3664.76,607.23,3598.21,615,3547.32Z" transform="translate(-28 -28)"/><path class="cls-6" d="M624.51,3510.85c19.35-46.95,124.85-51.87,192-38.32,67.78,13.66,160.36,59,157.11,107.75-3.47,52.07-116,103.85-209,82.39C678.31,3642.75,604.72,3558.85,624.51,3510.85Z" transform="translate(-28 -28)"/><path class="cls-6" d="M616.11,3596.14c-8.19-49.7,80.86-102.5,146.44-121.63,66.18-19.31,170.76-22.5,193.9,21.36,24.72,46.84-45.48,143.59-137.75,167.73C733.1,3686,624.48,3647,616.11,3596.14Z" transform="translate(-28 -28)"/><path class="cls-7" d="M460.25,3482.07c17.1,32.09-58.07,135.7-139.08,138.27-124.9,4-215.13-214.49-181.78-252.28,40.94-46.39,75.51,34.5,193.31,59.09C411.46,3443.59,448.64,3460.27,460.25,3482.07Z" transform="translate(-28 -28)"/><path class="cls-8" d="M458.77,3231.72c150.83-8.07,198.91,54.32,332.55,57.06,163.43,3.35,265.33-86.38,278.41-71,14.59,17.14-98.13,145-272.22,183.86-237.15,52.95-503.36-78.13-493.41-128.07C310.85,3239.64,447.22,3232.34,458.77,3231.72Z" transform="translate(-28 -28)"/><path class="cls-9" d="M994.62,3138.5c10.17-68.15-188.33-128.05-240.69-109.94-23.15,8-5.91,27.16-17.66,88.3-14.28,74.36-49.44,96.31-27.27,108.2C753.31,3248.83,984,3209.44,994.62,3138.5Z" transform="translate(-28 -28)"/><path class="cls-10" d="M222.37,3051.56c-10.06-68.82,186.31-129.33,238.11-111,22.9,8.09,5.85,27.44,17.46,89.18,14.13,75.11,48.92,97.28,27,109.29C461.09,3163,232.85,3123.22,222.37,3051.56Z" transform="translate(-28 -28)"/><rect class="cls-3" x="2" y="1470" width="1104" height="1309" rx="91.7"/><rect class="cls-3" x="2" y="2841" width="1104" height="846" rx="91.7"/><path class="cls-11" d="M323.41,2080.3C181,2082.47,176.3,2123.72,176,2183.56c-.37,63.73,22.23,113.05,214.5,109.17,159.56-3.21,162.3-86,163.34-113.45,1-25,13.89-37.92-44.92-76.89C468.82,2075.84,403.34,2079.08,323.41,2080.3Z" transform="translate(-28 -28)"/><circle class="cls-12" cx="720.5" cy="1058.5" r="139.5"/><path class="cls-2" d="M854.5,788.5c-105,12-160,112-148,217" transform="translate(-28 -28)"/><path class="cls-2" d="M645.5,1470.5c54-109,25-297-89-351" transform="translate(-28 -28)"/><path class="cls-2" d="M362.5,1606.5c33-82,148-127,284-105" transform="translate(-28 -28)"/><path class="cls-2" d="M860.5,1829.5c-64-229-246-290-498-209" transform="translate(-28 -28)"/><path class="cls-2" d="M566.5,2132.5c54-85,253-110,345-55" transform="translate(-28 -28)"/><path class="cls-2" d="M572.5,2145.5c76,31,86,169,40,237" transform="translate(-28 -28)"/><path class="cls-13" d="M114.5,2566.1c55.27-35.94,106.72,31,231,23.56,100.37-6,144.68-54.34,182.12-25.61,29.1,22.34,36.42,77.73,19.33,115.77C489.73,2807.05,126.13,2814,72.79,2702.36,52.27,2659.43,74.39,2592.18,114.5,2566.1Z" transform="translate(-28 -28)"/><path class="cls-7" d="M619,2368.94c144.83-.18,370.12,83.75,413.78,142.69,30.21,40.78-32,62.14-51.28,68.75-126.67,43.49-421.88-16-499.4-83.88C419.54,2441.73,484.58,2369.11,619,2368.94Z" transform="translate(-28 -28)"/><path class="cls-9" d="M969.32,1970.71c60-111.69-52.09-217.83-175.34-187.8-47.87,11.66-73.07,41.07-85,75-8.86,25.25-30.2,96.31-6.22,118.37C731.67,2002.88,949.17,2008.2,969.32,1970.71Z" transform="translate(-28 -28)"/><path class="cls-14" d="M773.3,2314.48c-78-66.82-32.83-249.57,73.83-280.14,109.15-31.29,267.45,101.17,244.48,195C1068.15,2325.19,854.83,2384.3,773.3,2314.48Z" transform="translate(-28 -28)"/><path class="cls-15" d="M349.21,1585.05c44.76,30.67,56.81,61.81,99.7,65.72,43.92,4,57-26.28,117.67-29.43,25.63-1.33,70.19-3.64,101.49,29.43,24.61,26,37.17,69.77,27.85,106-17.57,68.16-115.9,77.49-191.32,75-83.73-2.83-117.6-26.51-197.6-4.32-31.73,8.8-27.85,9-60.18,24.53-43.92,21-132.62,2.34-174.25-69.65-41.29-71.39-18.67-170,30.53-214.84C169.54,1506.78,286.54,1542.09,349.21,1585.05Z" transform="translate(-28 -28)"/><path class="cls-2" d="M662.5,1025.5c-60-27-211,10-243,59" transform="translate(-28 -28)"/><path class="cls-2" d="M561,734c65.5-45.5,256.5-28.5,300.5,37.5" transform="translate(-28 -28)"/><path class="cls-2" d="M501,734c-28.5-98.5,2.5-259.5,119.5-320.5" transform="translate(-28 -28)"/><rect class="cls-3" x="2" y="244" width="1104" height="1163" rx="91.7"/><rect class="cls-16" x="425.5" y="5449.3" width="262" height="60" rx="15"/><text class="cls-17" transform="translate(495.33 5484.68) scale(0.98 1)">Keep Lea<tspan class="cls-18" x="81" y="0">r</tspan><tspan class="cls-19" x="88.32" y="0">ning</tspan></text><text class="cls-20" transform="translate(900.04 5500.64)">amir<tspan class="cls-21" x="35.01" y="0">r</tspan><tspan x="40.68" y="0">ezaeghtedari.com</tspan></text><path class="cls-22" d="M131.15,1089.47C10.82,1159,63.85,1346.9,166,1384.39c40.85,15,62-4.18,170.43-4.05,150.43.17,196.71,37.2,230.9,16.23,62.24-38.19,12.31-224.48-159.43-297.63C338.88,1069.56,212.6,1042.41,131.15,1089.47Z" transform="translate(-28 -28)"/><ellipse class="cls-10" cx="902.5" cy="817" rx="127.84" ry="127"/><path class="cls-23" d="M204.3,731.64c119.87-20.95,335.11-21.94,397.27,34.84,37.64,34.38,10.23,77.44-41.82,99.75-110.56,47.41-359.84,13-411.95-44.5C117.57,788.35,153.44,740.53,204.3,731.64Z" transform="translate(-28 -28)"/><path class="cls-24" d="M238.26,321C332.4,334.63,485.4,387.18,487,463.3c1.76,84.21-182.15,179.14-305.32,139.35C48.35,559.57,32.38,373.55,113.24,326.94,146.67,307.67,192.89,314.38,238.26,321Z" transform="translate(-28 -28)"/><path class="cls-9" d="M1065.81,420.23c41.38,69.79,5.35,211.53-79.23,228.18-204.93,40.33-437.18-66.24-391.85-216.5,21.77-72.17,224.18-75,242-75.36C918.44,354.88,1025.76,352.69,1065.81,420.23Z" transform="translate(-28 -28)"/><rect class="cls-25" x="642" y="409" width="181" height="40" rx="20"/><text class="cls-26" transform="translate(665.84 435.34)">Boolean Algebra</text><rect class="cls-25" x="114" y="369" width="208" height="40" rx="20"/><text class="cls-26" transform="translate(137.84 395.34)">Computer Ha<tspan class="cls-27" x="108.36" y="0">r</tspan><tspan x="114.03" y="0">dwa</tspan><tspan class="cls-27" x="148.01" y="0">r</tspan><tspan class="cls-28" x="153.68" y="0">e</tspan></text><rect class="cls-25" x="45.22" y="108" width="104" height="40" rx="20"/><text class="cls-26" transform="translate(69.06 134.34)">Subject</text><rect class="cls-25" x="251" y="747" width="89" height="40" rx="20"/><text class="cls-26" transform="translate(274.84 773.34)">Array</text><rect class="cls-25" x="494" y="747" width="76" height="40" rx="20"/><text class="cls-26" transform="translate(517.84 773.34)">Set</text><rect class="cls-25" x="352" y="747" width="126" height="40" rx="20"/><text class="cls-26" transform="translate(375.84 773.34)">Dictionary</text><rect class="cls-25" x="119" y="420" width="132" height="40" rx="20"/><text class="cls-26" transform="translate(142.84 446.34)">P<tspan class="cls-27" x="11.66" y="0">r</tspan><tspan x="17.33" y="0">ocesses</tspan></text><rect class="cls-25" x="271" y="420" width="112" height="40" rx="20"/><text class="cls-26" transform="translate(294.84 446.34)">Th<tspan class="cls-27" x="20.34" y="0">r</tspan><tspan class="cls-28" x="26.01" y="0">eads</tspan></text><rect class="cls-25" x="185" y="471" width="82" height="40" rx="20"/><text class="cls-26" transform="translate(208.84 497.34)">Files</text><rect class="cls-25" x="837" y="409" width="97" height="40" rx="20"/><text class="cls-26" transform="translate(860.33 435.34)">Loops</text><rect class="cls-25" x="655" y="460" width="181" height="40" rx="20"/><text class="cls-26" transform="translate(680.32 486.34)">Sea<tspan class="cls-27" x="31" y="0">r</tspan><tspan x="36.67" y="0">ch and Sort</tspan></text><rect class="cls-25" x="850" y="460" width="121" height="40" rx="20"/><text class="cls-26" transform="translate(871.49 486.34)">Recursion</text><rect class="cls-29" x="641" y="562" width="396" height="40" rx="20"/><text class="cls-26" transform="translate(665.37 587.34)">Int<tspan class="cls-30" x="20.34" y="0">r</tspan><tspan class="cls-31" x="26.01" y="0">oduction to Algorithms by Cormen, et al.</tspan></text><rect class="cls-29" x="518" y="511" width="557" height="40" rx="20"/><text class="cls-26" transform="translate(541.37 536.34)">Disc<tspan class="cls-27" x="35.33" y="0">r</tspan><tspan class="cls-28" x="41" y="0">ete Mathematics and its Applications by Knnneth H. Rosen</tspan></text><rect class="cls-29" x="70" y="798" width="600" height="40" rx="20"/><text class="cls-26" transform="translate(94.37 823.34)">Data Structrues and Alogrithms in Swift by <tspan class="cls-32" x="346.71" y="0">V</tspan><tspan x="357.38" y="0">incent Ego &amp; Kelvin Lau</tspan></text><rect class="cls-16" x="750.53" y="84" width="336" height="60" rx="15"/><text class="cls-33" transform="translate(773.81 118.38) scale(0.98 1)">Starting iOS Development Jou<tspan class="cls-34" x="258.67" y="0">r</tspan><tspan x="266" y="0">ney</tspan></text><path class="cls-35" d="M179,710" transform="translate(-28 -28)"/><rect class="cls-25" x="917.5" y="792" width="89" height="40" rx="20"/><text class="cls-26" transform="translate(941.34 818.34)">HTTP</text><rect class="cls-25" x="798.5" y="792" width="103" height="40" rx="20"/><text class="cls-26" transform="translate(822.34 818.34)">TCP/IP</text><rect class="cls-29" x="727" y="843" width="351" height="40" rx="20"/><text class="cls-26" transform="translate(751.37 868.34)">https://beta.compute<tspan class="cls-36" x="170.06" y="0">r</tspan><tspan x="175.06" y="0">-networking.info</tspan></text><rect class="cls-29" x="634.46" y="1080" width="449.54" height="40" rx="20"/><text class="cls-26" transform="translate(658.83 1105.34)">An Int<tspan class="cls-27" x="47.02" y="0">r</tspan><tspan class="cls-31" x="52.69" y="0">oduction to Database Systems, by CJ. Date</tspan></text><rect class="cls-37" x="826.73" y="740.49" width="151.54" height="40" rx="20"/><text class="cls-38" transform="translate(853.1 766.83)">Networking</text><rect class="cls-25" x="634.46" y="1029" width="159" height="40" rx="20"/><text class="cls-26" transform="translate(658.3 1055.34)">Normalization</text><rect class="cls-25" x="814.46" y="1030" width="125" height="40" rx="20"/><text class="cls-26" transform="translate(842.3 1056.34)">Relations</text><rect class="cls-37" x="634.46" y="977.49" width="225.54" height="40" rx="20"/><text class="cls-38" transform="translate(660.83 1003.83)">Relational Database</text><rect class="cls-25" x="397.91" y="1158" width="106" height="40" rx="20"/><text class="cls-26" transform="translate(425.24 1184.34)">Xcode</text><rect class="cls-25" x="286.14" y="1158" width="95" height="40" rx="20"/><text class="cls-26" transform="translate(313.47 1184.34)">Swift</text><rect class="cls-25" x="266.14" y="1107" width="131" height="40" rx="20"/><text class="cls-26" transform="translate(289.98 1133.34)">Inheritance</text><rect class="cls-25" x="96.14" y="1107" width="156" height="40" rx="20"/><text class="cls-26" transform="translate(118.98 1133.34)">Encapculation</text><rect class="cls-25" x="96.14" y="1157" width="164" height="40" rx="20"/><text class="cls-26" transform="translate(120.29 1183.34)">Polymorphism</text><rect class="cls-37" x="96.14" y="1056.49" width="438.86" height="40" rx="20"/><text class="cls-38" transform="translate(122.51 1082.83)">Object Oriented P<tspan class="cls-27" x="153.34" y="0">r</tspan><tspan x="160.02" y="0">ogramming, </tspan><tspan class="cls-39" x="268.29" y="0">L</tspan><tspan x="279.68" y="0">anguage, IDE</tspan></text><rect class="cls-40" x="636" y="211.92" width="340" height="60" rx="15"/><path class="cls-41" d="M794.62,251" transform="translate(-28 -28)"/><text class="cls-38" transform="translate(657.36 247.31)">Softwa<tspan class="cls-32" x="59.99" y="0">r</tspan><tspan x="66.67" y="0">e Development Knowledge</tspan></text><path class="cls-2" d="M426.5,346.5c24-64,145-102,236-75" transform="translate(-28 -28)"/><rect class="cls-37" x="89" y="318" width="373" height="40" rx="20"/><text class="cls-38" transform="translate(113.37 343.34)">General Operating System Knowledge</text><rect class="cls-37" x="41.22" y="57" width="112" height="40" rx="20"/><text class="cls-38" transform="translate(61.56 82.34)">Heading</text><path class="cls-2" d="M629.5,390.5c-33.87-30.89-91-41-141.13-27.11" transform="translate(-28 -28)"/><rect class="cls-37" x="594" y="358" width="146.79" height="40" rx="20"/><text class="cls-38" transform="translate(620.37 384.34)">Algorithms</text><rect class="cls-29" x="28" y="522" width="396" height="40" rx="20"/><text class="cls-26" transform="translate(52.37 547.34)">Mode<tspan class="cls-42" x="46.35" y="0">r</tspan><tspan x="52.67" y="0">n Operating Systems by </tspan><tspan class="cls-43" x="251.4" y="0">T</tspan><tspan x="259.74" y="0">anenbaum</tspan></text><rect class="cls-29" x="36.39" y="158" width="121.66" height="40" rx="20"/><text class="cls-26" transform="translate(59.05 183.34)">Resou<tspan class="cls-27" x="51.34" y="0">r</tspan><tspan class="cls-28" x="57.01" y="0">ce</tspan></text><rect class="cls-37" x="387" y="724" width="185" height="40" rx="20" transform="translate(-31.71 -25.59) rotate(-0.29)"/><text class="cls-38" transform="matrix(1, 0, 0, 1, 383.41, 721.71)">Data Structu<tspan class="cls-27" x="108.38" y="0">r</tspan><tspan class="cls-31" x="115.05" y="0">es</tspan></text><rect class="cls-29" x="99" y="1311" width="335" height="40" rx="20"/><text class="cls-26" transform="translate(123.37 1336.34)">Mastering Swift 5, by John Ho<tspan class="cls-30" x="243.03" y="0">f</tspan><tspan class="cls-44" x="248.04" y="0">fman</tspan></text><rect class="cls-29" x="97.91" y="1210" width="452.76" height="40" rx="20"/><text class="cls-26" transform="translate(116.04 1235.34)">The Swift P<tspan class="cls-27" x="91.98" y="0">r</tspan><tspan x="97.65" y="0">ogramming Language, e-book by Apple</tspan></text><rect class="cls-29" x="236.14" y="1261" width="120" height="40" rx="20"/><text class="cls-26" transform="translate(260.51 1286.34)">Swift.o<tspan class="cls-45" x="55.64" y="0">r</tspan><tspan class="cls-31" x="61.13" y="0">g</tspan></text><rect class="cls-29" x="96.14" y="1261" width="120" height="40" rx="20"/><text class="cls-26" transform="translate(110.51 1286.34)">Xcode Help</text><rect class="cls-29" x="831.53" y="2508" width="120" height="40" rx="20"/><text class="cls-26" transform="translate(845.9 2533.34)">Xcode Help</text><rect class="cls-40" x="591" y="1443.25" width="385" height="60" rx="15"/><path class="cls-41" d="M787.12,1482.33" transform="translate(-28 -28)"/><text class="cls-38" transform="translate(609.08 1478.63)">Basic iOS Application Development Skills</text><rect class="cls-37" x="79" y="1574.07" width="263.89" height="40" rx="20"/><text class="cls-38" transform="translate(100.86 1600.42)">User Interaction and UIKit</text><rect class="cls-25" x="69" y="1624.79" width="130.75" height="40" rx="20"/><text class="cls-26" transform="translate(86.33 1651.13)">UI Elements</text><rect class="cls-25" x="512.25" y="1625.79" width="148.75" height="40" rx="20"/><text class="cls-26" transform="translate(529.59 1652.13)">Custom <tspan class="cls-32" x="68.36" y="0">V</tspan><tspan class="cls-28" x="79.04" y="0">iews</tspan></text><rect class="cls-25" x="216.25" y="1625.79" width="125.75" height="40" rx="20"/><text class="cls-26" transform="translate(233.59 1652.13)">Storyboa<tspan class="cls-30" x="73.33" y="0">r</tspan><tspan class="cls-31" x="79" y="0">d</tspan></text><rect class="cls-25" x="359.3" y="1625.79" width="135.75" height="40" rx="20"/><text class="cls-26" transform="translate(378.54 1652.13)">Auto Layout</text><rect class="cls-29" x="19" y="1729" width="656" height="40" rx="20"/><text class="cls-26" transform="translate(37.13 1754.34)">Mastering iOS 14 P<tspan class="cls-27" x="156.04" y="0">r</tspan><tspan x="161.71" y="0">ogramming, by Mario Eguiluz Alebicto, Chris Barke</tspan><tspan class="cls-46" x="571.08" y="0">r</tspan><tspan x="575.42" y="0">, Et al</tspan></text><rect class="cls-29" x="175" y="1901" width="815" height="40" rx="20"/><text class="cls-26" transform="translate(195.13 1926.34)">https://ww<tspan class="cls-47" x="85.3" y="0">w</tspan><tspan x="97.96" y="0">.raywenderlich.com/1000705-model-view-cont</tspan><tspan class="cls-32" x="474.35" y="0">r</tspan><tspan x="480.02" y="0">olle</tspan><tspan class="cls-36" x="508.01" y="0">r</tspan><tspan x="513.01" y="0">-mvc-in-ios-a-mode</tspan><tspan class="cls-48" x="675.06" y="0">r</tspan><tspan x="681.38" y="0">n-app</tspan><tspan class="cls-32" x="729.4" y="0">r</tspan><tspan class="cls-44" x="735.07" y="0">oach</tspan></text><rect class="cls-29" x="446.53" y="2457" width="555" height="40" rx="20"/><text class="cls-26" transform="translate(465.83 2482.34)"><tspan class="cls-36">V</tspan><tspan x="10.01" y="0">ersion Cont</tspan><tspan class="cls-27" x="103.01" y="0">r</tspan><tspan class="cls-31" x="108.68" y="0">ol with Git, by Jon Loeliger &amp; Matthew McCullough</tspan></text><rect class="cls-29" x="161.24" y="2648" width="335" height="40" rx="20"/><text class="cls-26" transform="translate(190.37 2673.34)">https://swift.o<tspan class="cls-49" x="110.99" y="0">r</tspan><tspan class="cls-31" x="116.48" y="0">g/package-manager</tspan></text><rect class="cls-29" x="232.94" y="2699" width="228" height="40" rx="20"/><text class="cls-26" transform="translate(257.19 2724.34)">https://cocoapods.o<tspan class="cls-50" x="163.69" y="0">r</tspan><tspan x="169.18" y="0">g</tspan></text><rect class="cls-25" x="59" y="1674.79" width="130.75" height="40" rx="20"/><text class="cls-26" transform="translate(76.33 1701.13)">Notifications</text><rect class="cls-25" x="206.25" y="1675.79" width="100.75" height="40" rx="20"/><text class="cls-26" transform="translate(223.59 1702.13)">Widgets</text><rect class="cls-25" x="319.3" y="1675.79" width="114.7" height="40" rx="20"/><text class="cls-26" transform="translate(338.54 1702.13)">App Clips</text><rect class="cls-25" x="452.25" y="1675.79" width="113.75" height="40" rx="20"/><text class="cls-26" transform="translate(467.59 1702.13)">Animation</text><rect class="cls-37" x="882.87" y="2036.07" width="188.13" height="40" rx="20"/><text class="cls-38" transform="translate(904.72 2062.42)">Data Persistency</text><rect class="cls-25" x="902.56" y="2086.79" width="148.75" height="40" rx="20"/><text class="cls-26" transform="translate(919.89 2113.13)">User Defaults</text><rect class="cls-25" x="918.56" y="2137.79" width="116.75" height="40" rx="20"/><text class="cls-26" transform="translate(935.89 2164.13)">Co<tspan class="cls-27" x="23.33" y="0">r</tspan><tspan x="29" y="0">e Data</tspan></text><rect class="cls-29" x="653" y="2189" width="418" height="40" rx="20"/><text class="cls-26" transform="translate(673.13 2214.34)">Mastering Co<tspan class="cls-30" x="108.34" y="0">r</tspan><tspan class="cls-31" x="114.01" y="0">e Data with Swift, by Bart Jacobs</tspan></text><rect class="cls-37" x="257" y="2097" width="287" height="40" rx="20"/><text class="cls-38" transform="translate(281.68 2123.34)">Fetching data f<tspan class="cls-27" x="128.66" y="0">r</tspan><tspan class="cls-31" x="135.34" y="0">om Network</tspan></text><rect class="cls-37" x="61.24" y="2545" width="231.76" height="40" rx="20"/><text class="cls-38" transform="translate(83.1 2571.34)">Dependency Mangers</text><rect class="cls-37" x="663" y="3036" width="138.76" height="40" rx="20"/><text class="cls-38" transform="translate(682.73 3062.34)">App Quality</text><rect class="cls-37" x="131.3" y="3386" width="149.7" height="40" rx="20"/><text class="cls-38" transform="translate(151.03 3412.34)">Legacy Code</text><rect class="cls-37" x="550.15" y="2355" width="247.76" height="40" rx="20"/><text class="cls-38" transform="translate(568.76 2381.34)"><tspan class="cls-47">V</tspan><tspan class="cls-31" x="10.35" y="0">ersion Cont</tspan><tspan class="cls-27" x="110.01" y="0">r</tspan><tspan x="116.69" y="0">ol Systems</tspan></text><rect class="cls-25" x="304.13" y="2147.79" width="148.75" height="40" rx="20"/><text class="cls-26" transform="translate(330.46 2174.13)">URLSession</text><rect class="cls-37" x="717.18" y="1800" width="254.82" height="40" rx="20"/><text class="cls-38" transform="translate(739.03 1826.34)">UI A<tspan class="cls-27" x="35.98" y="0">r</tspan><tspan class="cls-31" x="42.66" y="0">chitectural Patte</tspan><tspan class="cls-48" x="184.64" y="0">r</tspan><tspan x="191.97" y="0">ns</tspan></text><rect class="cls-25" x="796.04" y="1850.79" width="89.1" height="40" rx="20"/><text class="cls-26" transform="translate(822.37 1877.13)">MVC</text><rect class="cls-25" x="111.24" y="2595.79" width="240.96" height="40" rx="20"/><text class="cls-26" transform="translate(137.57 2622.13)">Swift Package Manager</text><rect class="cls-25" x="813.95" y="3087" width="188.05" height="40" rx="20"/><text class="cls-26" transform="translate(834.86 3113.34)">Xcode Instruments</text><rect class="cls-29" x="69" y="1780" width="184" height="40" rx="20"/><text class="cls-26" transform="translate(87.13 1805.34)">Apple Documents</text><rect class="cls-29" x="624" y="2240" width="464.93" height="40" rx="20"/><text class="cls-26" transform="translate(643.06 2265.34)">https://develope<tspan class="cls-51" x="131.69" y="0">r</tspan><tspan x="136.02" y="0">.apple.com/documentation/co</tspan><tspan class="cls-32" x="379.09" y="0">r</tspan><tspan x="384.76" y="0">edata</tspan></text><rect class="cls-29" x="20" y="2199" width="574" height="40" rx="20"/><text class="cls-26" transform="translate(43.13 2224.34)">https://develope<tspan class="cls-51" x="131.69" y="0">r</tspan><tspan x="136.02" y="0">.apple.com/documentation/foundation/urlsession</tspan></text><path class="cls-2" d="M578.5,2403.5c-105-32-257,61-277,170" transform="translate(-28 -28)"/><rect class="cls-25" x="416.35" y="2406" width="70.22" height="40" rx="20"/><text class="cls-26" transform="translate(439.79 2432.34)">Git</text><rect class="cls-25" x="506.98" y="2406" width="99.37" height="40" rx="20"/><text class="cls-26" transform="translate(528.16 2432.34)">GitHub</text><rect class="cls-25" x="626.31" y="2406" width="135.73" height="40" rx="20"/><text class="cls-26" transform="translate(644.83 2432.34)">Git in Xcode</text><rect class="cls-25" x="784.31" y="2406" width="147.41" height="40" rx="20"/><text class="cls-26" transform="translate(800.83 2432.34)">Git in <tspan class="cls-43" x="47.34" y="0">T</tspan><tspan class="cls-28" x="55.67" y="0">erminal</tspan></text><rect class="cls-40" x="550" y="2812.25" width="426" height="60" rx="15"/><path class="cls-41" d="M787.12,2851.33" transform="translate(-28 -28)"/><text class="cls-38" transform="translate(569.08 2847.63)">Advanced iOS Application Development Skills</text><path class="cls-2" d="M321,2593c177.5-19.5,377.5,107.5,398.5,246.5" transform="translate(-28 -28)"/><rect class="cls-29" x="84.14" y="3489" width="442" height="40" rx="20"/><text class="cls-26" transform="translate(104.3 3514.34)">Objective-C for Swift Developers, by Paul Hudson</text><rect class="cls-29" x="312.25" y="3942" width="707" height="40" rx="20"/><text class="cls-26" transform="translate(335.98 3967.34)">iOS Unit <tspan class="cls-43" x="72.02" y="0">T</tspan><tspan x="80.35" y="0">esting by Example: XC</tspan><tspan class="cls-43" x="262.38" y="0">T</tspan><tspan x="270.72" y="0">est Tips and </tspan><tspan class="cls-43" x="374.41" y="0">T</tspan><tspan class="cls-31" x="382.75" y="0">echniques Using Swift by Jon Reid</tspan></text><rect class="cls-29" x="224.25" y="4044" width="855" height="40" rx="20"/><text class="cls-26" transform="translate(244.58 4069.34)">Dependency Injection: Principles, Practices, and Patte<tspan class="cls-42" x="436.06" y="0">r</tspan><tspan x="442.38" y="0">ns by Mark Seemann and Steven van Deursen</tspan></text><rect class="cls-29" x="185" y="4443" width="266" height="40" rx="20"/><text class="cls-26" transform="translate(206.31 4468.34)">Mastery by Geo<tspan class="cls-49" x="128.01" y="0">r</tspan><tspan x="133.5" y="0">ge Leona</tspan><tspan class="cls-27" x="208.19" y="0">r</tspan><tspan x="213.85" y="0">d</tspan></text><rect class="cls-29" x="469" y="4443" width="378" height="40" rx="20"/><text class="cls-26" transform="translate(490.14 4468.34)">The Checklist Manifesto by Atul Gawande</text><rect class="cls-29" x="490" y="4494" width="392" height="40" rx="20"/><text class="cls-26" transform="translate(512.43 4519.34)">Discipline Equals F<tspan class="cls-27" x="152.35" y="0">r</tspan><tspan x="158.02" y="0">eedom by Jocko Willink</tspan></text><rect class="cls-29" x="135" y="4494" width="339" height="40" rx="20"/><text class="cls-26" transform="translate(156 4519.34)">Chasing Excellence by Ben Be<tspan class="cls-49" x="246.34" y="0">r</tspan><tspan x="251.83" y="0">ge</tspan><tspan class="cls-30" x="271.83" y="0">r</tspan><tspan class="cls-31" x="277.5" y="0">on</tspan></text><rect class="cls-29" x="577" y="4545" width="347" height="40" rx="20"/><text class="cls-26" transform="translate(595.51 4570.34)">The Power of Habit by Charles Duhigg</text><rect class="cls-29" x="105" y="4545" width="459" height="40" rx="20"/><text class="cls-26" transform="translate(124.43 4570.34)">The Five Dysfunctions of a <tspan class="cls-43" x="218.03" y="0">T</tspan><tspan class="cls-31" x="226.37" y="0">eam by Patrick Lencioni</tspan></text><rect class="cls-29" x="499" y="4596" width="409" height="40" rx="20"/><text class="cls-26" transform="translate(521.44 4621.34)">Hal Moo<tspan class="cls-30" x="68" y="0">r</tspan><tspan class="cls-31" x="73.67" y="0">e on Leadership by Ha</tspan><tspan class="cls-27" x="255.38" y="0">r</tspan><tspan x="261.05" y="0">old G. Moo</tspan><tspan class="cls-27" x="351.07" y="0">r</tspan><tspan x="356.74" y="0">e</tspan></text><rect class="cls-29" x="145" y="4596" width="339" height="40" rx="20"/><text class="cls-26" transform="translate(167.13 4621.34)">The Four Ag<tspan class="cls-27" x="98.67" y="0">r</tspan><tspan x="104.34" y="0">eements by Miguel Ruiz</tspan></text><rect class="cls-29" x="684" y="4647" width="230" height="40" rx="20"/><text class="cls-26" transform="translate(708.84 4672.34)">Principles by Ray Dalio</text><rect class="cls-29" x="155" y="4647" width="514" height="40" rx="20"/><text class="cls-26" transform="translate(182.5 4672.34)">How to win friends and influence people by Dale Ca<tspan class="cls-42" x="416.35" y="0">r</tspan><tspan x="422.67" y="0">negie</tspan></text><rect class="cls-29" x="711" y="4698" width="291" height="40" rx="20"/><text class="cls-26" transform="translate(737.82 4723.34)">Influence by Robert B. Cialdini</text><rect class="cls-29" x="125" y="4698" width="566" height="40" rx="20"/><text class="cls-26" transform="translate(148.07 4723.34)">The <tspan class="cls-32" x="35.01" y="0">V</tspan><tspan x="45.68" y="0">isual Display of Quantitative Information by Edwa</tspan><tspan class="cls-27" x="439.73" y="0">r</tspan><tspan x="445.4" y="0">d R. </tspan><tspan class="cls-46" x="483.42" y="0">T</tspan><tspan class="cls-28" x="492.09" y="0">ufte</tspan></text><rect class="cls-29" x="175" y="4850" width="532" height="40" rx="20"/><text class="cls-26" transform="translate(201.53 4875.34)">The New New Thing: A Silicon <tspan class="cls-47" x="247.64" y="0">V</tspan><tspan class="cls-31" x="257.65" y="0">alley Story by Michael Lewis</tspan></text><rect class="cls-29" x="547" y="4799" width="525" height="40" rx="20"/><text class="cls-26" transform="translate(569.47 4824.34)">Sapiens: A Brief History of Humankind by <tspan class="cls-52" x="338.05" y="0">Y</tspan><tspan x="348.39" y="0">uval Noah Harari</tspan></text><rect class="cls-29" x="125" y="4799" width="406" height="40" rx="20"/><text class="cls-26" transform="translate(147.08 4824.34)">Thinking, Fast and Slow by Daniel Kahneman</text><rect class="cls-29" x="436" y="4751" width="642" height="40" rx="20"/><text class="cls-26" transform="translate(458.72 4776.34)">Mindstorms: Child<tspan class="cls-30" x="147.38" y="0">r</tspan><tspan class="cls-31" x="153.05" y="0">en, Computers, And Powerful Ideas by Seymour Papert</tspan></text><rect class="cls-29" x="105" y="4751" width="314" height="40" rx="20"/><text class="cls-26" transform="translate(127.44 4776.34)">Man vs. Markets by Paddy Hirsch</text><rect class="cls-29" x="726" y="4850" width="282" height="40" rx="20"/><text class="cls-26" transform="translate(750.14 4875.34)">The Alliance by Reid Ho<tspan class="cls-27" x="192.34" y="0">f</tspan><tspan x="197.35" y="0">fman</tspan></text><rect class="cls-29" x="660" y="4901" width="368" height="40" rx="20"/><text class="cls-26" transform="translate(679.49 4926.34)">Dealers of Lightning by Michael A. Hiltzik</text><rect class="cls-29" x="255" y="4901" width="387" height="40" rx="20"/><text class="cls-26" transform="translate(278.13 4926.34)">F<tspan class="cls-27" x="10.33" y="0">r</tspan><tspan class="cls-31" x="16" y="0">om Thi</tspan><tspan class="cls-27" x="71.03" y="0">r</tspan><tspan x="76.7" y="0">d </tspan><tspan class="cls-53" x="92.38" y="0">W</tspan><tspan class="cls-31" x="108.02" y="0">orld to First by Lee Kuan </tspan><tspan class="cls-43" x="310.73" y="0">Y</tspan><tspan class="cls-31" x="320.4" y="0">ew</tspan></text><rect class="cls-29" x="688.25" y="4095" width="301" height="40" rx="20"/><text class="cls-26" transform="translate(710.72 4120.34)">Clean Code by Robert C. Martin</text><rect class="cls-29" x="328.25" y="4095" width="337" height="40" rx="20"/><text class="cls-26" transform="translate(350.04 4120.34)">Domain-Driven Design by Eric Evans</text><rect class="cls-29" x="465.25" y="4146" width="494" height="40" rx="20"/><text class="cls-26" transform="translate(489.71 4171.34)">Object-Oriented Softwa<tspan class="cls-27" x="191.01" y="0">r</tspan><tspan class="cls-28" x="196.68" y="0">e Engineering by Ivar Jacobson</tspan></text><rect class="cls-29" x="665.25" y="3993" width="344" height="40" rx="20"/><text class="cls-26" transform="translate(689.72 4018.34)">The Clean Coder by Robert C. Martin</text><rect class="cls-29" x="289.25" y="3993" width="355" height="40" rx="20"/><text class="cls-26" transform="translate(312.37 4018.34)">Clean A<tspan class="cls-27" x="63" y="0">r</tspan><tspan class="cls-28" x="68.67" y="0">chitectu</tspan><tspan class="cls-27" x="133.02" y="0">r</tspan><tspan class="cls-28" x="138.69" y="0">e by Robert C. Martin</tspan></text><rect class="cls-29" x="323.25" y="4246" width="476" height="40" rx="20"/><text class="cls-26" transform="translate(345.98 4271.34)">Design Patte<tspan class="cls-42" x="103.01" y="0">r</tspan><tspan x="109.33" y="0">ns by Gamma, Johnson, Vlissides, Helm</tspan></text><rect class="cls-29" x="367.25" y="4196" width="532" height="40" rx="20"/><text class="cls-26" transform="translate(391.35 4221.34)">Design Patte<tspan class="cls-42" x="103.01" y="0">r</tspan><tspan x="109.33" y="0">ns by </tspan><tspan class="cls-46" x="158.02" y="0">T</tspan><tspan class="cls-28" x="166.7" y="0">utorials by Joshua G</tspan><tspan class="cls-30" x="332.06" y="0">r</tspan><tspan class="cls-31" x="337.73" y="0">eene &amp; Jay Strawn</tspan></text><rect class="cls-25" x="685.95" y="3086" width="112.17" height="40" rx="20"/><text class="cls-26" transform="translate(706.86 3112.34)">Unit <tspan class="cls-43" x="37.67" y="0">T</tspan><tspan class="cls-31" x="46.01" y="0">est</tspan></text><rect class="cls-25" x="171.94" y="3438" width="134.81" height="40" rx="20"/><text class="cls-26" transform="translate(191.34 3464.34)">Objective-C</text><rect class="cls-37" x="330.3" y="3222" width="171.7" height="40" rx="20"/><text class="cls-38" transform="translate(350.03 3248.34)">Enriching Apps</text><rect class="cls-37" x="616.3" y="3479" width="152.7" height="40" rx="20"/><text class="cls-38" transform="translate(636.03 3505.34)">UI/UX Design</text><rect class="cls-37" x="559.25" y="3840" width="390" height="40" rx="20"/><text class="cls-38" transform="translate(580.41 3866.34)">Softwa<tspan class="cls-32" x="59.99" y="0">r</tspan><tspan x="66.67" y="0">e A</tspan><tspan class="cls-32" x="94.34" y="0">r</tspan><tspan x="101.01" y="0">chitectu</tspan><tspan class="cls-32" x="170.67" y="0">r</tspan><tspan x="177.35" y="0">e &amp; Coding Patte</tspan><tspan class="cls-48" x="322.02" y="0">r</tspan><tspan x="329.34" y="0">ns</tspan></text><rect class="cls-37" x="384.5" y="4392" width="204" height="40" rx="20"/><text class="cls-38" transform="translate(405.66 4418.34)">General Education</text><rect class="cls-25" x="636.3" y="3530" width="119.74" height="40" rx="20"/><text class="cls-26" transform="translate(654.73 3556.34)">Apple HIG</text><rect class="cls-25" x="770.3" y="3530" width="119.74" height="40" rx="20"/><text class="cls-26" transform="translate(788.73 3556.34)">Adobe XD</text><rect class="cls-25" x="723.22" y="3580" width="89.53" height="40" rx="20"/><text class="cls-26" transform="translate(741.81 3606.34)">Sketch</text><rect class="cls-25" x="330.3" y="3272" width="97.06" height="40" rx="20"/><text class="cls-26" transform="translate(356.06 3298.34)">ARKit</text><rect class="cls-25" x="445.87" y="3272" width="97.06" height="40" rx="20"/><text class="cls-26" transform="translate(462.22 3298.34)">Co<tspan class="cls-27" x="23.33" y="0">r</tspan><tspan x="29" y="0">eML</tspan></text><rect class="cls-25" x="561.44" y="3271" width="109.6" height="40" rx="20"/><text class="cls-26" transform="translate(577.23 3297.34)">Bluetooth</text><rect class="cls-25" x="689.54" y="3271" width="109.6" height="40" rx="20"/><text class="cls-26" transform="translate(709.51 3297.34)">Location</text><rect class="cls-25" x="817.65" y="3271" width="109.6" height="40" rx="20"/><text class="cls-26" transform="translate(832.16 3297.34)">Animation</text><rect class="cls-25" x="945.76" y="3271" width="60.68" height="40" rx="20"/><text class="cls-26" transform="translate(960.44 3297.34)">Etc.</text><rect class="cls-25" x="383.58" y="3892" width="177.36" height="40" rx="20"/><text class="cls-26" transform="translate(398.08 3918.34)">Clean A<tspan class="cls-27" x="63" y="0">r</tspan><tspan class="cls-28" x="68.67" y="0">chitectu</tspan><tspan class="cls-27" x="133.02" y="0">r</tspan><tspan class="cls-28" x="138.69" y="0">e</tspan></text><rect class="cls-25" x="578.78" y="3892" width="97.06" height="40" rx="20"/><text class="cls-26" transform="translate(608.31 3918.34)">DDD</text><rect class="cls-25" x="693.68" y="3891" width="109.6" height="40" rx="20"/><text class="cls-26" transform="translate(730.65 3917.34)">TDD</text><rect class="cls-25" x="821.13" y="3891" width="109.6" height="40" rx="20"/><text class="cls-26" transform="translate(849.59 3917.34)">SOLID</text><rect class="cls-25" x="948.57" y="3891" width="60.68" height="40" rx="20"/><text class="cls-26" transform="translate(963.24 3917.34)">Etc.</text><rect class="cls-37" x="302.3" y="2946" width="168.7" height="40" rx="20"/><text class="cls-38" transform="translate(322.03 2972.34)">Multi-th<tspan class="cls-32" x="66.96" y="0">r</tspan><tspan x="73.64" y="0">eading</tspan></text><path class="cls-25" d="M445,3065H354a20,20,0,1,1,0-40H445a20,20,0,0,1,0,40Z" transform="translate(-28 -28)"/><text class="cls-26" transform="translate(326.86 3023.34)">Operations</text><rect class="cls-25" x="213.95" y="2997" width="79.05" height="40" rx="20"/><text class="cls-26" transform="translate(234.86 3023.34)">GCD</text><rect class="cls-29" x="633" y="3137" width="184" height="40" rx="20"/><text class="cls-26" transform="translate(651.13 3162.34)">Apple Documents</text><rect class="cls-29" x="287" y="3049" width="184" height="40" rx="20"/><text class="cls-26" transform="translate(305.13 3074.34)">Apple Documents</text><rect class="cls-29" x="450.3" y="3324" width="184" height="40" rx="20"/><text class="cls-26" transform="translate(468.43 3349.34)">Apple Documents</text><path class="cls-54" d="M204,3039l195-120" transform="translate(-28 -28)"/><path class="cls-55" d="M347,3452" transform="translate(-28 -28)"/><path class="cls-2" d="M575.5,2872.5c-50,4-98,52-96,102" transform="translate(-28 -28)"/><path class="cls-2" d="M499.5,2994.5c61-28,189,7,211.5,69.5" transform="translate(-28 -28)"/><path class="cls-2" d="M691.5,3084.5c-97-3-189,81-192,164" transform="translate(-28 -28)"/><path class="cls-2" d="M358.5,3269.5c-60,0-151,91-147,149" transform="translate(-28 -28)"/><rect class="cls-40" x="132" y="3722.25" width="397" height="60" rx="15"/><path class="cls-41" d="M369.12,3761.33" transform="translate(-28 -28)"/><text class="cls-38" transform="translate(151.08 3757.63)">Senior iOS Application Development Skills</text><path class="cls-2" d="M644,3527c-86.5-1.5-186.5,137.5-176.5,225.5" transform="translate(-28 -28)"/><path class="cls-2" d="M820.5,3867.5" transform="translate(-28 -28)"/><path class="cls-2" d="M555.5,3773.5" transform="translate(-28 -28)"/><path class="cls-56" d="M357.11,5115.32c111.63-85.12,293-70.58,397,11.6,123,97.22,112,251.08,80,251.08h-550C182.31,5378,265.91,5184.86,357.11,5115.32Z" transform="translate(-28 -28)"/><rect class="cls-37" x="407.11" y="5081" width="289" height="40" rx="20"/><text class="cls-38" transform="translate(428.27 5107.34)">People and Medias to Follow</text><rect class="cls-25" x="353.15" y="5132.6" width="156.95" height="40" rx="20"/><text class="cls-26" transform="translate(377.66 5158.94)">Apple WWDC</text><rect class="cls-29" x="518.11" y="5183" width="336" height="40" rx="20"/><text class="cls-26" transform="translate(541.96 5208.34)">https://ww<tspan class="cls-47" x="85.3" y="0">w</tspan><tspan x="97.96" y="0">.essentialdevelope</tspan><tspan class="cls-51" x="247.3" y="0">r</tspan><tspan x="251.64" y="0">.com</tspan></text><rect class="cls-25" x="302.96" y="5183" width="202.14" height="40" rx="20"/><text class="cls-26" transform="translate(327.47 5209.34)">Essential Developer</text><rect class="cls-29" x="501.11" y="5232" width="379" height="40" rx="20"/><text class="cls-26" transform="translate(527.32 5257.34)">https://ww<tspan class="cls-47" x="85.3" y="0">w</tspan><tspan x="97.96" y="0">.hackingwithswift.com/about</tspan></text><rect class="cls-25" x="336.96" y="5232" width="150.14" height="40" rx="20"/><text class="cls-26" transform="translate(361.47 5258.34)">Paul Hudson</text><rect class="cls-29" x="594.11" y="5282" width="302" height="40" rx="20"/><text class="cls-26" transform="translate(617.66 5307.34)">https://ww<tspan class="cls-47" x="85.3" y="0">w</tspan><tspan x="97.96" y="0">.raywenderlich.com</tspan></text><rect class="cls-25" x="378.96" y="5282" width="197.14" height="40" rx="20"/><text class="cls-26" transform="translate(403.47 5308.34)">raywenderlich.com</text><path class="cls-2" d="M235.5,3809.5c11,47,174,79,352,79" transform="translate(-28 -28)"/><text class="cls-57" transform="translate(65.22 38.48)">Legend</text></svg>